<?xml version="1.0" encoding="UTF-8"?><svg id="uuid-b41b1da6-61fa-48e8-8c71-573be1c49d83" xmlns="http://www.w3.org/2000/svg" viewBox="0 0 1080 1080"><rect width="1080" height="1080" rx="110.26" ry="110.26" style="fill:#0069a8;"/><path d="M793.99,377.05c-87.74,0-149.84,31.87-193.71,77.39l56.4-320.93h-143.33v-.04H63.76l98.95,164.8h321.35l-2.32,13.16H166.48l77.67,129.54h214.73l-2.32,13.15h-208.55l61.06,101.85h129.53l-57.61,326.69-78.64.18v62.95l209.77.78,2.68-11.87h.02l13.1-58.04c27.92,41.54,84.89,69.42,165.23,69.42,154.97,0,286.57-120.07,315.62-285.08,29.06-166.15-59.82-283.94-214.78-283.94ZM862.35,660.43c-15.39,86.49-88.88,154.77-175.48,154.77s-136.74-68.28-121.35-154.77c15.38-87.06,89.45-152.5,175.48-152.5s136.74,64.3,121.35,152.5Z" style="fill:#fff;"/></svg>